<svg height="512" viewBox="0 0 128 128" width="512" xmlns="http://www.w3.org/2000/svg"><g id="Circle_Grid" data-name="Circle Grid"><circle cx="64" cy="64" fill="#ef5261" r="64"/></g><g id="icon"><path d="m90.611 57.181a26.538 26.538 0 0 1 -8.02 19.591 23.988 23.988 0 0 0 -7.279 17.162v.2h-22.624v-.186a24.853 24.853 0 0 0 -7.56-17.455 26.624 26.624 0 0 1 20.03-45.371 26.846 26.846 0 0 1 25.453 26.059z" fill="#f6c863"/><path d="m75.5 91.055v9.11a4.047 4.047 0 0 1 -4.047 4.047h-14.906a4.047 4.047 0 0 1 -4.047-4.047v-9.11z" fill="#575b6d"/><rect fill="#414451" height="2.351" rx="1.176" width="25.602" x="51.199" y="98.825"/><rect fill="#414451" height="2.351" rx="1.176" width="25.602" x="51.199" y="93.653"/><path d="m59.3 104.212a4.806 4.806 0 0 0 9.394 0z" fill="#414451"/><g fill="#f6c863"><rect height="7.406" rx="1.053" width="2.106" x="62.943" y="20"/><rect height="7.406" rx="1.053" transform="matrix(.866 -.5 .5 .866 -7.82 27.308)" width="2.106" x="45.994" y="24.544"/><rect height="7.406" rx="1.053" transform="matrix(.5 -.866 .866 .5 -17.889 50.328)" width="2.106" x="33.588" y="36.953"/><rect height="7.406" rx="1.053" transform="matrix(0 -1 1 0 -27.504 87.708)" width="2.106" x="29.049" y="53.903"/><rect height="7.406" rx="1.053" transform="matrix(-.5 -.866 .866 -.5 -12.598 141.836)" width="2.106" x="33.592" y="70.851"/><rect height="7.406" rx="1.053" transform="matrix(-.5 .866 -.866 -.5 204.598 30.97)" width="2.106" x="92.306" y="70.844"/><rect height="7.406" rx="1.053" transform="matrix(0 1 -1 0 155.496 -40.301)" width="2.106" x="96.846" y="53.894"/><rect height="7.406" rx="1.053" transform="matrix(.5 .866 -.866 .5 81.88 -60.523)" width="2.106" x="92.302" y="36.945"/><rect height="7.406" rx="1.053" transform="matrix(.866 .5 -.5 .866 24.966 -36.689)" width="2.106" x="79.893" y="24.539"/></g><path d="m82.438 60.272v-5.317l-5.354-1.077a13.27 13.27 0 0 0 -1.191-2.871l3.026-4.547-3.765-3.76-4.547 3.026a13.208 13.208 0 0 0 -2.872-1.191l-1.076-5.354h-5.318l-1.08 5.354a13.262 13.262 0 0 0 -2.871 1.191l-4.548-3.026-3.761 3.76 3.019 4.54a13.716 13.716 0 0 0 -1.191 2.875l-5.35 1.077v5.317l5.35 1.077a13.592 13.592 0 0 0 1.191 2.878l-3.022 4.547 3.761 3.761 4.551-3.022a13.5 13.5 0 0 0 2.875 1.19l1.076 5.35h5.318l1.076-5.35a13.619 13.619 0 0 0 2.875-1.19l4.544 3.022 3.765-3.761-3.026-4.547a13.354 13.354 0 0 0 1.191-2.871zm-17.661 4.907a7.606 7.606 0 1 1 6.789-6.789 7.608 7.608 0 0 1 -6.789 6.789z" fill="#575b6d"/></g></svg>