<svg xmlns="http://www.w3.org/2000/svg" height="512pt" version="1.1" viewBox="0 0 512 512" width="512pt">
<g id="surface1">
<path d="M 512 256 C 512 397.386719 397.386719 512 256 512 C 114.613281 512 0 397.386719 0 256 C 0 114.613281 114.613281 0 256 0 C 397.386719 0 512 114.613281 512 256 Z M 512 256 " style=" stroke:none;fill-rule:nonzero;fill:rgb(38.039216%,20%,58.039216%);fill-opacity:1;" />
<path d="M 512 256 C 512 254.265625 511.96875 252.539062 511.933594 250.8125 L 408.117188 146.996094 L 364.714844 269.207031 L 238.070312 142.5625 L 134.734375 315.714844 L 322.324219 503.304688 C 431.554688 474.082031 512 374.445312 512 256 Z M 512 256 " style=" stroke:none;fill-rule:nonzero;fill:rgb(29.411765%,10.588235%,47.843137%);fill-opacity:1;" />
<path d="M 84.019531 202.125 C 84.019531 153.222656 123.664062 113.582031 172.566406 113.582031 C 210.730469 113.582031 243.257812 137.730469 255.699219 171.582031 C 268.140625 137.730469 300.664062 113.582031 338.832031 113.582031 C 387.734375 113.582031 427.378906 153.222656 427.378906 202.125 C 427.378906 330.609375 255.699219 398.417969 255.699219 398.417969 C 255.699219 398.417969 84.019531 327.824219 84.019531 202.125 Z M 84.019531 202.125 " style=" stroke:none;fill-rule:nonzero;fill:rgb(100%,0%,40.784314%);fill-opacity:1;" />
<path d="M 427.378906 202.125 C 427.378906 153.222656 387.734375 113.582031 338.832031 113.582031 C 300.726562 113.582031 268.246094 137.652344 255.761719 171.417969 L 255.761719 398.394531 C 259.296875 396.984375 427.378906 329.261719 427.378906 202.125 Z M 427.378906 202.125 " style=" stroke:none;fill-rule:nonzero;fill:rgb(89.803922%,5.490196%,43.921569%);fill-opacity:1;" />
<path d="M 435 297.324219 C 435 352.796875 390.03125 397.765625 334.558594 397.765625 C 279.082031 397.765625 234.113281 352.796875 234.113281 297.324219 C 234.113281 241.851562 279.082031 196.882812 334.558594 196.882812 C 390.03125 196.882812 435 241.851562 435 297.324219 Z M 435 297.324219 " style=" stroke:none;fill-rule:nonzero;fill:rgb(100%,100%,100%);fill-opacity:1;" />
<path d="M 334.558594 196.878906 C 334.480469 196.878906 334.40625 196.882812 334.332031 196.882812 L 334.332031 397.761719 C 334.40625 397.761719 334.480469 397.765625 334.558594 397.765625 C 390.03125 397.765625 435 352.796875 435 297.324219 C 435 241.851562 390.03125 196.878906 334.558594 196.878906 Z M 334.558594 196.878906 " style=" stroke:none;fill-rule:nonzero;fill:rgb(91.372549%,92.941176%,96.078431%);fill-opacity:1;" />
<path d="M 314.917969 361.386719 L 266.375 312.84375 L 293.246094 285.972656 L 314.917969 307.644531 L 375.867188 246.695312 L 402.738281 273.566406 Z M 314.917969 361.386719 " style=" stroke:none;fill-rule:nonzero;fill:rgb(0%,85.882353%,100%);fill-opacity:1;" />
<path d="M 375.867188 246.695312 L 334.332031 288.230469 L 334.332031 341.972656 L 402.738281 273.566406 Z M 375.867188 246.695312 " style=" stroke:none;fill-rule:nonzero;fill:rgb(8.235294%,70.980392%,92.941176%);fill-opacity:1;" />
</g>
</svg>