<svg id="Layer_1" enable-background="new 0 0 128 128" height="512" viewBox="0 0 128 128" width="512" xmlns="http://www.w3.org/2000/svg"><g><path d="m118.263 20.487h-81.906c-4.411 0-8 3.589-8 8v7.98c-2.273.817-3.907 2.988-3.907 5.539v8.019h-13.908c-2.649 0-4.805 2.155-4.805 4.805v51.878c0 2.649 2.155 4.805 4.805 4.805h94.081c.552 0 1-.448 1-1v-3.052c0-2.391-1.945-4.336-4.336-4.336h-8.921l-4.179-10.126h30.076c4.411 0 8-3.589 8-8v-56.512c0-4.411-3.589-8-8-8z" fill="#e6e7e8"/><g><g><path d="m114.263 17.487h-81.906c-3.866 0-7 3.134-7 7v8.728c.318-.065.646-.099.983-.099h36.557c2.7 0 4.89 2.189 4.89 4.89v49.993h46.476c3.866 0 7-3.134 7-7v-56.512c0-3.866-3.134-7-7-7z" fill="#0089ef"/><path d="m114.263 17.487h-81.906c-3.866 0-7 3.134-7 7v3c0-3.866 3.134-7 7-7h81.906c3.866 0 7 3.134 7 7v-3c0-3.866-3.134-7-7-7z" fill="#fff"/><path d="m67.787 100.124h19.909l-5.004-12.126h-14.905z" fill="#6dc9f7"/><path d="m97.287 100.125h-29.5v1.498c0 2.701-2.189 4.89-4.89 4.89h37.725v-3.052c.001-1.843-1.493-3.336-3.335-3.336z" fill="#0089ef"/><path d="m110.189 23.561h-73.758c-2.761 0-5 2.239-5 5v4.554h31.466c2.7 0 4.89 2.189 4.89 4.89v39.58h42.402c2.761 0 5-2.239 5-5v-44.024c0-2.761-2.238-5-5-5z" fill="#d4fbff"/><g><path d="m105.858 30.116h-65.096c-1.105 0-2 .895-2 2v1h24.136c2.7 0 4.89 2.189 4.89 4.89v10.391h38.071c1.105 0 2-.895 2-2v-14.28c-.001-1.106-.896-2.001-2.001-2.001z" fill="#ffd7e5"/><g fill="#fa759e"><path d="m80.796 51.995h-13.009v18.702h13.009c1.105 0 2-.895 2-2v-14.702c0-1.105-.896-2-2-2z"/><path d="m88.886 68.697v-14.702c0-1.105.895-2 2-2h14.972c1.105 0 2 .895 2 2v14.702c0 1.105-.895 2-2 2h-14.972c-1.104 0-2-.895-2-2z"/></g></g><circle cx="73.31" cy="82.601" fill="#6dc9f7" r="2.603"/></g><g><path d="m62.897 33.116h-36.557c-2.7 0-4.89 2.189-4.89 4.89v9.019h10.62c2.101 0 3.805 1.703 3.805 3.805v51.879c0 2.101-1.703 3.805-3.805 3.805h30.828c2.7 0 4.89-2.189 4.89-4.89v-63.619c-.001-2.7-2.19-4.889-4.891-4.889z" fill="#0089ef"/><path d="m21.45 40.075v6.95h10.62c2.101 0 3.805 1.703 3.805 3.805v45.732h31.912v-56.487z" fill="#d4fbff"/><g><path d="m40.517 72.735h-4.642v17.065h4.642c1.045 0 1.893-.847 1.893-1.893v-13.28c0-1.044-.848-1.892-1.893-1.892z" fill="#fa759e"/><path d="m62.323 46.781h-35.408c-.332 0-.64.093-.912.244h6.067c2.101 0 3.805 1.703 3.805 3.805v18.983h26.448c1.045 0 1.893-.847 1.893-1.893v-19.247c-.001-1.045-.848-1.892-1.893-1.892z" fill="#ffd7e5"/><g><path d="m45.919 87.908v-13.28c0-1.045.847-1.893 1.893-1.893h13.602c1.045 0 1.893.847 1.893 1.893v13.28c0 1.045-.847 1.893-1.893 1.893h-13.602c-1.045 0-1.893-.848-1.893-1.893z" fill="#fa759e"/></g></g><g fill="#6dc9f7"><path d="m50.287 37.423h-11.337c-.392 0-.713-.321-.713-.713v-.088c0-.392.321-.713.713-.713h11.337c.392 0 .713.321.713.713v.088c0 .392-.321.713-.713.713z"/><circle cx="54.029" cy="36.666" r=".831"/><path d="m48.403 102.952h-7.569c-.952 0-1.732-.779-1.732-1.732v-.214c0-.952.779-1.732 1.732-1.732h7.569c.952 0 1.732.779 1.732 1.732v.214c0 .953-.779 1.732-1.732 1.732z"/></g></g><g><path d="m32.07 106.513h-25.528c-2.101 0-3.805-1.703-3.805-3.805v-51.879c0-2.101 1.703-3.805 3.805-3.805h25.528c2.101 0 3.805 1.703 3.805 3.805v51.879c0 2.101-1.704 3.805-3.805 3.805z" fill="#0089ef"/><path d="m-3.585 58.987h45.783v33.138h-45.783z" fill="#d4fbff" transform="matrix(0 1 -1 0 94.862 56.25)"/><path d="m7.737 69.447v-9.783c0-1.105.895-2 2-2h19.138c1.105 0 2 .895 2 2v9.783c0 1.105-.895 2-2 2h-19.138c-1.104 0-2-.895-2-2z" fill="#ffd7e5"/><path d="m7.737 91.447v-15.782c0-1.105.895-2 2-2h19.138c1.105 0 2 .895 2 2v15.783c0 1.105-.895 2-2 2h-19.138c-1.104-.001-2-.896-2-2.001z" fill="#fa759e"/><g fill="#6dc9f7"><path d="m23.923 50.515h-9.235c-.305 0-.555-.25-.555-.555v-.118c0-.305.25-.555.555-.555h9.235c.305 0 .555.25.555.555v.118c0 .306-.25.555-.555.555z"/><circle cx="26.933" cy="49.902" r=".673"/><path d="m22.429 103.627h-6.247c-.741 0-1.348-.606-1.348-1.348v-.286c0-.741.606-1.348 1.348-1.348h6.247c.741 0 1.348.606 1.348 1.348v.286c0 .742-.607 1.348-1.348 1.348z"/></g><g fill="#3a2c60"><path d="m114.263 16.487h-81.906c-4.411 0-8 3.589-8 8v7.979c-2.273.817-3.907 2.988-3.907 5.539v8.019h-13.908c-2.649 0-4.805 2.155-4.805 4.805v51.879c0 2.649 2.156 4.805 4.805 4.805h94.081c.552 0 1-.448 1-1v-3.052c0-2.391-1.945-4.336-4.336-4.336h-8.922l-4.178-10.126h30.077c4.411 0 8-3.589 8-8v-56.512c-.001-4.411-3.59-8-8.001-8zm-87.923 17.629h36.558c2.145 0 3.89 1.745 3.89 3.89v1.069h-44.338v-1.069c0-2.145 1.745-3.89 3.89-3.89zm36.558 71.397h-26.944c.573-.791.921-1.755.921-2.805v-5.146h29.913v4.062c-.001 2.144-1.746 3.889-3.89 3.889zm-59.161-51.849h31.138v43.783h-31.138zm18.713-12.589h44.337v54.487h-29.912v-44.733c0-2.649-2.155-4.805-4.805-4.805h-9.62zm-15.908 6.949h25.528c1.546 0 2.805 1.258 2.805 2.805v.835h-31.138v-.835c0-1.546 1.258-2.805 2.805-2.805zm-2.805 54.684v-3.261h31.138v3.261c0 1.546-1.258 2.805-2.805 2.805h-25.528c-1.547 0-2.805-1.259-2.805-2.805zm95.886.752v2.052h-32.315c.917-1.039 1.479-2.398 1.479-3.89v-.499h18.909 9.591c1.288.001 2.336 1.049 2.336 2.337zm-13.422-4.336h-17.414v-10.126h13.236zm34.062-18.126c0 3.309-2.691 6-6 6h-31.571-13.905v-8.413h41.402c3.309 0 6-2.691 6-6v-14.29c0-.552-.448-1-1-1s-1 .448-1 1v14.29c0 2.206-1.794 4-4 4h-41.402v-38.58c0-3.248-2.642-5.89-5.89-5.89h-30.466v-3.555c0-2.206 1.794-4 4-4h73.758c2.206 0 4 1.794 4 4v12.514c0 .552.448 1 1 1s1-.448 1-1v-12.513c0-3.309-2.691-6-6-6h-73.758c-3.309 0-6 2.691-6 6v3.555h-4.074v-7.628c0-3.309 2.691-6 6-6h81.906c3.309 0 6 2.691 6 6z"/><path d="m115.189 43.625c-.552 0-1 .448-1 1v9.75c0 .552.448 1 1 1s1-.448 1-1v-9.75c0-.552-.448-1-1-1z"/></g></g></g></g></svg>