<svg id="Capa_1" enable-background="new 0 0 512 512" height="512" viewBox="0 0 512 512" width="512" xmlns="http://www.w3.org/2000/svg"><g><g><g><path d="m238.287 269.254c0-17.084-13.849-30.934-30.934-30.934h-155.698v-238.32h155.699c17.084 0 30.934 13.849 30.934 30.934l10 56.066c-6.049 55.12-10.001 94.25-10.001 182.254z" fill="#ffe0ba"/></g><g><path d="m98.055 37.718h93.832v30h-93.832z" fill="#ffc377"/></g><g><path d="m238.287 269.254c0-17.084 13.849-30.934 30.934-30.934h155.699v-238.32h-155.699c-17.084 0-30.934 13.849-30.934 30.934z" fill="#ffc377"/></g><g><path d="m284.688 37.718h93.832v30h-93.832z" fill="#ffa07b"/></g><g><path d="m98.055 99.585h93.832v30h-93.832z" fill="#ffc377"/></g><g><path d="m284.688 99.585h93.832v30h-93.832z" fill="#ffa07b"/></g><g><path d="m284.688 161.453h93.832v30h-93.832z" fill="#ffa07b"/></g><g><path d="m98.055 161.453h93.832v30h-93.832z" fill="#ffc377"/></g></g><g><g><path d="m327.429 303.702h65.954v216.718h-65.954z" fill="#ff415b" transform="matrix(.707 -.707 .707 .707 -185.81 375.535)"/><g><path d="m238.287 390.073c-55.802 0-101.038-45.236-101.038-101.038s45.236-101.038 101.038-101.038l20 101.038z" fill="#d4ecfd"/><path d="m238.287 187.997c55.802 0 101.038 45.236 101.038 101.038s-45.236 101.038-101.038 101.038z" fill="#addbfd"/></g></g></g></g></svg>