<svg id="Layer_3" height="512" viewBox="0 0 64 64" width="512" xmlns="http://www.w3.org/2000/svg" data-name="Layer 3"><path d="m54 54h-16a6 6 0 0 0 -5.659 4h21.659z" fill="#d1d7e5"/><path d="m10 54h16a6 6 0 0 1 5.659 4h-21.659z" fill="#9da1bf"/><path d="m56 20h2a2 2 0 0 1 2 2v38a2 2 0 0 1 -2 2h-52a2 2 0 0 1 -2-2v-38a2 2 0 0 1 2-2h2v34h2v4h44v-4h2z" fill="#3b5892"/><path d="m32 60a6 6 0 0 0 -6-6h-18v-38h18a6 6 0 0 1 6 6z" fill="#c8cded"/><path d="m32 22a6 6 0 0 1 6-6h18v38h-18a6 6 0 0 0 -6 6z" fill="#e2e7f6"/><path d="m28 11-1.757-1.757a4.243 4.243 0 0 1 -1.243-3 4.242 4.242 0 0 1 4.243-4.243 4.243 4.243 0 0 1 3 1.243l1.757 1.757z" fill="#ccc"/><path d="m29.7 2.024a4.513 4.513 0 0 1 2.678 1.354l.122.122-3.793 3.793a1 1 0 0 1 -1.414 0l-1.05-1.05a4.229 4.229 0 0 1 -.957-1.5 4.23 4.23 0 0 1 4.414-2.719z" fill="#e0e0e0"/><path d="m34.757 4.686h8.485v22.627h-8.485z" fill="#4c6cb5" transform="matrix(.707 -.707 .707 .707 .109 32.263)"/><path d="m44 27 8 2-2-8z" fill="#f2b9a1"/><path d="m38 4.686h2v22.627h-2z" fill="#78a0d4" transform="matrix(.707 -.707 .707 .707 .109 32.263)"/><path d="m14 14v12l4-4 4 4v-12z" fill="#78a0d4"/><path d="m36 34h16v14h-16z" fill="#5e87ca"/><path d="m49 43v-9h-13v11h11a2 2 0 0 0 2-2z" fill="#78a0d4"/><g fill="#9da1bf"><path d="m14.999 31h10v2h-10z"/><path d="m11 35h18v2h-18z"/><path d="m11 39h18v2h-18z"/><path d="m11 43h18v2h-18z"/></g></svg>